<mxfile host="app.diagrams.net" agent="Mozilla/5.0 (Windows NT 10.0; Win64; x64) AppleWebKit/537.36 (KHTML, like Gecko) Chrome/135.0.0.0 Safari/537.36" version="27.0.2">
  <diagram name="第 1 页" id="KihIIWVJSMbdUOO1M1Qx">
    <mxGraphModel dx="1123" dy="1853" grid="1" gridSize="9" guides="1" tooltips="1" connect="1" arrows="1" fold="1" page="1" pageScale="1" pageWidth="827" pageHeight="1169" math="0" shadow="0">
      <root>
        <mxCell id="0" />
        <mxCell id="1" parent="0" />
        <mxCell id="g8YqqYHhqT1fTJi5KSwG-12" value="" style="rounded=0;whiteSpace=wrap;html=1;" parent="1" vertex="1">
          <mxGeometry x="459" y="-319" width="530" height="610" as="geometry" />
        </mxCell>
        <mxCell id="f1X-rvi33LOtooYSlSEJ-4" value="" style="rounded=0;whiteSpace=wrap;html=1;fillColor=#00FF00;" parent="1" vertex="1">
          <mxGeometry x="489" y="-99" width="100" height="300" as="geometry" />
        </mxCell>
        <mxCell id="f1X-rvi33LOtooYSlSEJ-8" value="&lt;font style=&quot;font-size: 10px;&quot;&gt;注册中心&lt;/font&gt;" style="rounded=0;whiteSpace=wrap;html=1;strokeColor=#00FF00;fillColor=#00FF00;" parent="1" vertex="1">
          <mxGeometry x="510.6666666666667" y="-76.3896894409938" width="66.66666666666667" height="26.161490683229808" as="geometry" />
        </mxCell>
        <mxCell id="f1X-rvi33LOtooYSlSEJ-3" value="&lt;font style=&quot;font-size: 10px;&quot;&gt;nacos0&lt;/font&gt;" style="rounded=0;whiteSpace=wrap;html=1;" parent="1" vertex="1">
          <mxGeometry x="509" y="-28.817360248447216" width="70" height="23.981366459627328" as="geometry" />
        </mxCell>
        <mxCell id="f1X-rvi33LOtooYSlSEJ-6" value="&lt;font style=&quot;font-size: 10px;&quot;&gt;nacos0&lt;/font&gt;" style="rounded=0;whiteSpace=wrap;html=1;" parent="1" vertex="1">
          <mxGeometry x="509" y="28.17539337474119" width="70" height="23.981366459627328" as="geometry" />
        </mxCell>
        <mxCell id="f1X-rvi33LOtooYSlSEJ-7" value="&lt;font style=&quot;font-size: 10px;&quot;&gt;nacos0&lt;/font&gt;" style="rounded=0;whiteSpace=wrap;html=1;" parent="1" vertex="1">
          <mxGeometry x="509" y="79.98698757763975" width="70" height="23.981366459627328" as="geometry" />
        </mxCell>
        <mxCell id="f1X-rvi33LOtooYSlSEJ-17" value="" style="group" parent="1" vertex="1" connectable="0">
          <mxGeometry x="599" y="-99" width="130" height="45.21739130434782" as="geometry" />
        </mxCell>
        <mxCell id="f1X-rvi33LOtooYSlSEJ-15" value="&lt;font style=&quot;font-size: 10px;&quot;&gt;&amp;nbsp; &amp;nbsp; 访问层&lt;/font&gt;" style="rounded=0;whiteSpace=wrap;html=1;align=left;fillColor=#00FF00;" parent="f1X-rvi33LOtooYSlSEJ-17" vertex="1">
          <mxGeometry width="130" height="45.21739130434782" as="geometry" />
        </mxCell>
        <mxCell id="f1X-rvi33LOtooYSlSEJ-16" value="&lt;font style=&quot;font-size: 10px;&quot;&gt;tomcat-8082&lt;/font&gt;" style="rounded=0;whiteSpace=wrap;html=1;" parent="f1X-rvi33LOtooYSlSEJ-17" vertex="1">
          <mxGeometry x="50" y="10.4" width="70" height="25.77" as="geometry" />
        </mxCell>
        <mxCell id="f1X-rvi33LOtooYSlSEJ-18" value="" style="group" parent="1" vertex="1" connectable="0">
          <mxGeometry x="738" y="-99" width="130" height="45.21739130434782" as="geometry" />
        </mxCell>
        <mxCell id="f1X-rvi33LOtooYSlSEJ-19" value="&lt;font style=&quot;font-size: 10px;&quot;&gt;&amp;nbsp; &amp;nbsp; 访问层&lt;/font&gt;" style="rounded=0;whiteSpace=wrap;html=1;align=left;fillColor=#00FF00;" parent="f1X-rvi33LOtooYSlSEJ-18" vertex="1">
          <mxGeometry width="130" height="45.21739130434782" as="geometry" />
        </mxCell>
        <mxCell id="f1X-rvi33LOtooYSlSEJ-20" value="&lt;font style=&quot;font-size: 10px;&quot;&gt;tomcat-8083&lt;/font&gt;" style="rounded=0;whiteSpace=wrap;html=1;" parent="f1X-rvi33LOtooYSlSEJ-18" vertex="1">
          <mxGeometry x="50" y="10.4" width="70" height="25.77" as="geometry" />
        </mxCell>
        <mxCell id="f1X-rvi33LOtooYSlSEJ-21" value="" style="rounded=0;whiteSpace=wrap;html=1;fillColor=#00FF00;" parent="1" vertex="1">
          <mxGeometry x="599" y="-46.43000000000001" width="130" height="187.43" as="geometry" />
        </mxCell>
        <mxCell id="f1X-rvi33LOtooYSlSEJ-23" value="&lt;font style=&quot;font-size: 10px;&quot;&gt;数据处理层&lt;/font&gt;" style="rounded=0;whiteSpace=wrap;html=1;strokeColor=#00FF00;fillColor=#00FF00;" parent="1" vertex="1">
          <mxGeometry x="608.9966666666667" y="-39.00273291925467" width="66.66666666666667" height="26.161490683229808" as="geometry" />
        </mxCell>
        <mxCell id="f1X-rvi33LOtooYSlSEJ-27" value="&lt;font style=&quot;font-size: 10px;&quot;&gt;trade-data&lt;/font&gt;" style="rounded=0;whiteSpace=wrap;html=1;" parent="1" vertex="1">
          <mxGeometry x="634" y="-4.840000000000032" width="60" height="25.84" as="geometry" />
        </mxCell>
        <mxCell id="f1X-rvi33LOtooYSlSEJ-29" value="" style="rounded=0;whiteSpace=wrap;html=1;fillColor=#00FF00;fontStyle=1" parent="1" vertex="1">
          <mxGeometry x="738" y="-46.43000000000001" width="130" height="187.43" as="geometry" />
        </mxCell>
        <mxCell id="f1X-rvi33LOtooYSlSEJ-30" value="&lt;font style=&quot;font-size: 10px;&quot;&gt;trade-data&lt;/font&gt;" style="rounded=0;whiteSpace=wrap;html=1;" parent="1" vertex="1">
          <mxGeometry x="773" y="-4.842173913043439" width="60" height="25.773913043478256" as="geometry" />
        </mxCell>
        <mxCell id="f1X-rvi33LOtooYSlSEJ-32" value="&lt;font style=&quot;font-size: 10px;&quot;&gt;数据处理层&lt;/font&gt;" style="rounded=0;whiteSpace=wrap;html=1;strokeColor=#00FF00;fillColor=#00FF00;" parent="1" vertex="1">
          <mxGeometry x="748.9966666666667" y="-39.00273291925467" width="66.66666666666667" height="26.161490683229808" as="geometry" />
        </mxCell>
        <mxCell id="f1X-rvi33LOtooYSlSEJ-33" value="&lt;font style=&quot;font-size: 10px;&quot;&gt;trade-data&lt;/font&gt;" style="rounded=0;whiteSpace=wrap;html=1;" parent="1" vertex="1">
          <mxGeometry x="773" y="28.177826086956543" width="60" height="25.773913043478256" as="geometry" />
        </mxCell>
        <mxCell id="f1X-rvi33LOtooYSlSEJ-39" value="&lt;font style=&quot;font-size: 10px;&quot;&gt;trade-data&lt;/font&gt;" style="rounded=0;whiteSpace=wrap;html=1;" parent="1" vertex="1">
          <mxGeometry x="773" y="62.57782608695652" width="60" height="25.773913043478256" as="geometry" />
        </mxCell>
        <mxCell id="f1X-rvi33LOtooYSlSEJ-40" value="&lt;font style=&quot;font-size: 10px;&quot;&gt;trade-data&lt;/font&gt;" style="rounded=0;whiteSpace=wrap;html=1;" parent="1" vertex="1">
          <mxGeometry x="773" y="95.59782608695656" width="60" height="25.773913043478256" as="geometry" />
        </mxCell>
        <mxCell id="f1X-rvi33LOtooYSlSEJ-25" value="&lt;font style=&quot;font-size: 10px;&quot;&gt;&amp;nbsp; &amp;nbsp; 访问层&lt;/font&gt;" style="rounded=0;whiteSpace=wrap;html=1;align=left;fillColor=#00FF00;" parent="1" vertex="1">
          <mxGeometry x="599" y="151" width="270" height="50" as="geometry" />
        </mxCell>
        <mxCell id="f1X-rvi33LOtooYSlSEJ-41" value="&lt;font&gt;数据处理层&lt;/font&gt;" style="rounded=0;whiteSpace=wrap;html=1;strokeColor=#00FF00;fillColor=#00FF00;fontSize=10;" parent="1" vertex="1">
          <mxGeometry x="606.96" y="162.91999999999996" width="56.66" height="26.16" as="geometry" />
        </mxCell>
        <mxCell id="f1X-rvi33LOtooYSlSEJ-42" value="消息队列" style="rounded=0;whiteSpace=wrap;html=1;strokeColor=#00FF00;fillColor=#00FF00;fontSize=10;" parent="1" vertex="1">
          <mxGeometry x="811.3399999999999" y="164.09000000000003" width="56.66" height="26.16" as="geometry" />
        </mxCell>
        <mxCell id="f1X-rvi33LOtooYSlSEJ-26" value="&lt;font style=&quot;font-size: 10px;&quot;&gt;artemis-01&lt;/font&gt;" style="rounded=0;whiteSpace=wrap;html=1;" parent="1" vertex="1">
          <mxGeometry x="749" y="161.75" width="65.38" height="28.5" as="geometry" />
        </mxCell>
        <mxCell id="f1X-rvi33LOtooYSlSEJ-43" value="&lt;font style=&quot;font-size: 10px;&quot;&gt;xxl-job&lt;/font&gt;" style="rounded=0;whiteSpace=wrap;html=1;" parent="1" vertex="1">
          <mxGeometry x="663.62" y="161.75" width="65.38" height="28.5" as="geometry" />
        </mxCell>
        <mxCell id="f1X-rvi33LOtooYSlSEJ-47" value="" style="group" parent="1" vertex="1" connectable="0">
          <mxGeometry x="489" y="201" width="380" height="69.9" as="geometry" />
        </mxCell>
        <mxCell id="f1X-rvi33LOtooYSlSEJ-48" value="" style="rounded=0;whiteSpace=wrap;html=1;align=left;fillColor=#00FF00;" parent="f1X-rvi33LOtooYSlSEJ-47" vertex="1">
          <mxGeometry y="10.4" width="380" height="45.22" as="geometry" />
        </mxCell>
        <mxCell id="f1X-rvi33LOtooYSlSEJ-54" value="&lt;font style=&quot;font-size: 10px;&quot;&gt;PostgreSQL&lt;/font&gt;" style="points=[];aspect=fixed;html=1;align=center;shadow=0;dashed=0;fillColor=#FF6A00;strokeColor=none;shape=mxgraph.alibaba_cloud.acr_cloud_container_registry;" parent="f1X-rvi33LOtooYSlSEJ-47" vertex="1">
          <mxGeometry x="100" y="15.41" width="30.32" height="35.19" as="geometry" />
        </mxCell>
        <mxCell id="f1X-rvi33LOtooYSlSEJ-56" value="Redis" style="points=[];aspect=fixed;html=1;align=center;shadow=0;dashed=0;fillColor=#FF6A00;strokeColor=none;shape=mxgraph.alibaba_cloud.adb_analyticdb_for_mysql;" parent="f1X-rvi33LOtooYSlSEJ-47" vertex="1">
          <mxGeometry x="299" y="15" width="31.17" height="35" as="geometry" />
        </mxCell>
        <mxCell id="f1X-rvi33LOtooYSlSEJ-57" value="数据库主" style="rounded=0;whiteSpace=wrap;html=1;strokeColor=#00FF00;fillColor=#00FF00;fontSize=10;" parent="f1X-rvi33LOtooYSlSEJ-47" vertex="1">
          <mxGeometry x="10" y="19.920000000000016" width="56.66" height="26.16" as="geometry" />
        </mxCell>
        <mxCell id="f1X-rvi33LOtooYSlSEJ-50" value="" style="rounded=0;whiteSpace=wrap;html=1;fillColor=#00FF00;" parent="1" vertex="1">
          <mxGeometry x="879" y="-99" width="90" height="300" as="geometry" />
        </mxCell>
        <mxCell id="f1X-rvi33LOtooYSlSEJ-51" value="&lt;font style=&quot;font-size: 10px;&quot;&gt;接口调用&lt;/font&gt;" style="rounded=0;whiteSpace=wrap;html=1;strokeColor=#00FF00;fillColor=#00FF00;" parent="1" vertex="1">
          <mxGeometry x="892.3366666666667" y="2.0172670807453414" width="66.66666666666667" height="26.161490683229808" as="geometry" />
        </mxCell>
        <mxCell id="f1X-rvi33LOtooYSlSEJ-52" value="&lt;font style=&quot;font-size: 10px;&quot;&gt;API_server&lt;/font&gt;" style="rounded=0;whiteSpace=wrap;html=1;" parent="1" vertex="1">
          <mxGeometry x="895.67" y="38.079999999999984" width="60" height="25.84" as="geometry" />
        </mxCell>
        <mxCell id="g8YqqYHhqT1fTJi5KSwG-1" value="&lt;font style=&quot;font-size: 10px;&quot;&gt;&amp;nbsp; &amp;nbsp; 网关层&lt;/font&gt;" style="rounded=0;whiteSpace=wrap;html=1;align=left;fillColor=#00FF00;" parent="1" vertex="1">
          <mxGeometry x="599" y="-169" width="130" height="45.21739130434782" as="geometry" />
        </mxCell>
        <mxCell id="g8YqqYHhqT1fTJi5KSwG-2" value="&lt;font style=&quot;font-size: 10px;&quot;&gt;trade-gateway&lt;/font&gt;" style="rounded=0;whiteSpace=wrap;html=1;" parent="1" vertex="1">
          <mxGeometry x="649" y="-158.6" width="70" height="25.77" as="geometry" />
        </mxCell>
        <mxCell id="g8YqqYHhqT1fTJi5KSwG-3" value="&lt;font style=&quot;font-size: 10px;&quot;&gt;&amp;nbsp; &amp;nbsp; 入口层&lt;/font&gt;" style="rounded=0;whiteSpace=wrap;html=1;align=left;fillColor=#00FF00;" parent="1" vertex="1">
          <mxGeometry x="599" y="-239" width="130" height="45.21739130434782" as="geometry" />
        </mxCell>
        <mxCell id="g8YqqYHhqT1fTJi5KSwG-4" value="&lt;font style=&quot;font-size: 10px;&quot;&gt;nginx&lt;/font&gt;" style="rounded=0;whiteSpace=wrap;html=1;" parent="1" vertex="1">
          <mxGeometry x="649" y="-228.6" width="70" height="25.77" as="geometry" />
        </mxCell>
        <mxCell id="g8YqqYHhqT1fTJi5KSwG-5" value="&lt;font style=&quot;font-size: 10px;&quot;&gt;&amp;nbsp; &amp;nbsp; 管理端前端&lt;/font&gt;" style="rounded=0;whiteSpace=wrap;html=1;align=left;fillColor=#00FF00;" parent="1" vertex="1">
          <mxGeometry x="765.6700000000001" y="-239" width="130" height="45.21739130434782" as="geometry" />
        </mxCell>
        <mxCell id="g8YqqYHhqT1fTJi5KSwG-6" value="&lt;font style=&quot;font-size: 10px;&quot;&gt;ROOT&lt;/font&gt;" style="rounded=0;whiteSpace=wrap;html=1;" parent="1" vertex="1">
          <mxGeometry x="833" y="-228.6" width="50" height="25.77" as="geometry" />
        </mxCell>
        <mxCell id="g8YqqYHhqT1fTJi5KSwG-7" value="" style="endArrow=classic;html=1;rounded=0;exitX=0.5;exitY=1;exitDx=0;exitDy=0;entryX=0.5;entryY=0;entryDx=0;entryDy=0;" parent="1" source="g8YqqYHhqT1fTJi5KSwG-3" target="g8YqqYHhqT1fTJi5KSwG-1" edge="1">
          <mxGeometry width="50" height="50" relative="1" as="geometry">
            <mxPoint x="809" y="-159" as="sourcePoint" />
            <mxPoint x="809" y="-179" as="targetPoint" />
          </mxGeometry>
        </mxCell>
        <mxCell id="g8YqqYHhqT1fTJi5KSwG-8" value="" style="endArrow=classic;html=1;rounded=0;entryX=0.5;entryY=0;entryDx=0;entryDy=0;exitX=0.5;exitY=1;exitDx=0;exitDy=0;" parent="1" source="g8YqqYHhqT1fTJi5KSwG-1" target="f1X-rvi33LOtooYSlSEJ-15" edge="1">
          <mxGeometry width="50" height="50" relative="1" as="geometry">
            <mxPoint x="399" y="-139" as="sourcePoint" />
            <mxPoint x="449" y="-189" as="targetPoint" />
          </mxGeometry>
        </mxCell>
        <mxCell id="g8YqqYHhqT1fTJi5KSwG-9" value="" style="endArrow=classic;html=1;rounded=0;exitX=1;exitY=0.5;exitDx=0;exitDy=0;entryX=0;entryY=0.5;entryDx=0;entryDy=0;" parent="1" source="g8YqqYHhqT1fTJi5KSwG-3" target="g8YqqYHhqT1fTJi5KSwG-5" edge="1">
          <mxGeometry width="50" height="50" relative="1" as="geometry">
            <mxPoint x="519" y="-179" as="sourcePoint" />
            <mxPoint x="569" y="-229" as="targetPoint" />
          </mxGeometry>
        </mxCell>
        <mxCell id="g8YqqYHhqT1fTJi5KSwG-11" value="&lt;span style=&quot;font-size: 10px;&quot;&gt;上海机房-（主）&lt;/span&gt;" style="rounded=0;whiteSpace=wrap;html=1;" parent="1" vertex="1">
          <mxGeometry x="479" y="-279" width="80" height="25.77" as="geometry" />
        </mxCell>
        <mxCell id="g8YqqYHhqT1fTJi5KSwG-13" value="&lt;div&gt;&lt;font style=&quot;font-size: 10px;&quot;&gt;agent: 执行脚本/传输文件/监控&lt;/font&gt;&lt;/div&gt;&lt;div&gt;&lt;font style=&quot;font-size: 10px;&quot;&gt;artemis : 中间件&lt;/font&gt;&lt;/div&gt;&lt;div&gt;&lt;font style=&quot;font-size: 10px;&quot;&gt;postgresql：数据库&lt;/font&gt;&lt;/div&gt;&lt;div&gt;&lt;font style=&quot;font-size: 10px;&quot;&gt;redis：消息缓存&amp;nbsp;&lt;/font&gt;&lt;/div&gt;&lt;div&gt;&lt;font style=&quot;font-size: 10px;&quot;&gt;tomcat：web服务&lt;/font&gt;&lt;/div&gt;&lt;div&gt;&lt;font style=&quot;font-size: 10px;&quot;&gt;nacos:&amp;nbsp; 注册中心&lt;/font&gt;&lt;/div&gt;&lt;div&gt;&lt;font style=&quot;font-size: 10px;&quot;&gt;xxl_job:&amp;nbsp; 调度中心&lt;/font&gt;&lt;/div&gt;&lt;div&gt;&lt;font style=&quot;font-size: 10px;&quot;&gt;api_server: 接口调用&lt;/font&gt;&lt;/div&gt;&lt;div&gt;&lt;font style=&quot;font-size: 10px;&quot;&gt;trade-persist:&amp;nbsp; &amp;nbsp;自开组件(用于从artemis 读取数据写入postgres)&lt;/font&gt;&lt;/div&gt;&lt;div&gt;&lt;font style=&quot;font-size: 10px;&quot;&gt;trade-gateway:&amp;nbsp; 流量网关&lt;/font&gt;&lt;/div&gt;&lt;div&gt;&lt;font style=&quot;font-size: 10px;&quot;&gt;trade-account:&amp;nbsp; 用户登录服务&lt;/font&gt;&lt;/div&gt;&lt;div&gt;&lt;font style=&quot;font-size: 10px;&quot;&gt;trade-data:&amp;nbsp; &amp;nbsp;收集处理数据&lt;/font&gt;&lt;/div&gt;&lt;div style=&quot;line-height: 100%;&quot;&gt;&lt;font style=&quot;font-size: 10px;&quot;&gt;tarde-config:&amp;nbsp; 系统配置，策略上传等功能&lt;/font&gt;&lt;/div&gt;&lt;div&gt;&lt;font style=&quot;font-size: 10px;&quot;&gt;tarde-task:&amp;nbsp; 授权，下单，发送指令到底层相关逻辑&lt;/font&gt;&lt;/div&gt;&lt;div&gt;&lt;font style=&quot;font-size: 10px;&quot;&gt;nginx:&amp;nbsp; 管理端访问入口(8080) 用户端访问入口（8090）&lt;/font&gt;&lt;/div&gt;&lt;div&gt;&lt;font style=&quot;font-size: 10px;&quot;&gt;======================================================&lt;/font&gt;&lt;/div&gt;&lt;div&gt;&lt;font style=&quot;font-size: 10px;&quot;&gt;redis(6379)&amp;nbsp; &amp;nbsp; &amp;nbsp; &amp;nbsp; &amp;nbsp; &amp;nbsp; &amp;nbsp; &amp;nbsp; &amp;nbsp; &amp;nbsp; &amp;nbsp; &amp;nbsp; &amp;nbsp; &amp;nbsp;/opt/timeline&amp;nbsp; &amp;nbsp; &amp;nbsp; 6.0.16&lt;/font&gt;&lt;/div&gt;&lt;div&gt;&lt;font style=&quot;font-size: 10px;&quot;&gt;artemis(61616)&amp;nbsp; &amp;nbsp; &amp;nbsp; &amp;nbsp; &amp;nbsp; &amp;nbsp; &amp;nbsp; &amp;nbsp; &amp;nbsp; &amp;nbsp; &amp;nbsp;/opt/artemis&amp;nbsp; &amp;nbsp; &amp;nbsp; apache-artemis-2.31.2&lt;/font&gt;&lt;/div&gt;&lt;div&gt;&lt;font style=&quot;font-size: 10px;&quot;&gt;nacos(8848、8858、8868)&amp;nbsp; &amp;nbsp;/opt/timeline&amp;nbsp; &amp;nbsp; &amp;nbsp; nacos-v2.1.0&lt;/font&gt;&lt;/div&gt;&lt;div&gt;&lt;font style=&quot;font-size: 10px;&quot;&gt;xxl_job(8160)&amp;nbsp; &amp;nbsp; &amp;nbsp; &amp;nbsp; &amp;nbsp; &amp;nbsp; &amp;nbsp; &amp;nbsp; &amp;nbsp; &amp;nbsp; &amp;nbsp; &amp;nbsp; /opt/timeline&amp;nbsp; &amp;nbsp; &amp;nbsp; xxl-job_v1.0.0&lt;/font&gt;&lt;/div&gt;&lt;div&gt;&lt;font style=&quot;font-size: 10px;&quot;&gt;tomcat(8082、8083)&amp;nbsp; &amp;nbsp; &amp;nbsp; &amp;nbsp; &amp;nbsp; &amp;nbsp; &amp;nbsp;/opt/timeline&amp;nbsp; &amp;nbsp; &amp;nbsp;apache-tomcat-10.1.26-jdk17&lt;/font&gt;&lt;/div&gt;&lt;div&gt;&lt;font style=&quot;font-size: 10px;&quot;&gt;java-project(8089)&amp;nbsp; &amp;nbsp; &amp;nbsp; &amp;nbsp; &amp;nbsp; &amp;nbsp; &amp;nbsp; &amp;nbsp; /opt/timeline&amp;nbsp; &amp;nbsp; &amp;nbsp; java-project-v1.0.0&lt;/font&gt;&lt;/div&gt;&lt;div&gt;&lt;font style=&quot;font-size: 10px;&quot;&gt;nginx(8080、8090)&amp;nbsp; &amp;nbsp; &amp;nbsp; &amp;nbsp; &amp;nbsp; &amp;nbsp; &amp;nbsp; &amp;nbsp;/opt/timeline&amp;nbsp; &amp;nbsp; &amp;nbsp; nginx-1.21-debian-10&amp;nbsp;&lt;/font&gt;&lt;/div&gt;&lt;div&gt;&lt;font style=&quot;font-size: 10px;&quot;&gt;======================================================&lt;/font&gt;&lt;/div&gt;&lt;div&gt;&lt;font style=&quot;font-size: 10px;&quot;&gt;/opt/timeline/html/es&amp;nbsp; &amp;nbsp; &amp;nbsp; &amp;nbsp; &amp;nbsp; &amp;nbsp;用户端 前端&lt;/font&gt;&lt;/div&gt;&lt;div&gt;&lt;font style=&quot;font-size: 10px;&quot;&gt;/opt/timeline/html/ROOT&amp;nbsp; &amp;nbsp; &amp;nbsp;管理端 前端&lt;/font&gt;&lt;/div&gt;&lt;div&gt;&lt;font style=&quot;font-size: 10px;&quot;&gt;======================================================&lt;/font&gt;&lt;/div&gt;&lt;div&gt;&lt;font style=&quot;font-size: 10px;&quot;&gt;nginx 配置文件路径： /opt/timeline/config/nginx/server_blocks/customize_server.conf&lt;/font&gt;&lt;/div&gt;&lt;div&gt;&lt;font style=&quot;font-size: 10px;&quot;&gt;tomcat 配置文件路径： /opt/timeline/config/tomcat&lt;/font&gt;&lt;/div&gt;&lt;div&gt;&lt;font style=&quot;font-size: 10px;&quot;&gt;xxl_job 配置文件路径：&amp;nbsp; /opt/timeline/config/8160/bootstrap.yml&lt;/font&gt;&lt;/div&gt;&lt;div&gt;&lt;font style=&quot;font-size: 10px;&quot;&gt;nacos 配置文件路径： /opt/timeline/env/nacos.env&amp;nbsp;&lt;/font&gt;&lt;/div&gt;&lt;div&gt;&lt;font style=&quot;font-size: 10px;&quot;&gt;tomcat8082 日志路径： /opt/timeline/logs/tomcat8082/&lt;/font&gt;&lt;/div&gt;&lt;div&gt;&lt;font style=&quot;font-size: 10px;&quot;&gt;tomcat8083 日志路径： /opt/timeline/logs/tomcat8083/&lt;/font&gt;&lt;/div&gt;&lt;div&gt;&lt;font style=&quot;font-size: 10px;&quot;&gt;pgsql&amp;nbsp; &amp;nbsp;/opt/timeline/data/pg_data&amp;nbsp; &amp;nbsp; &amp;nbsp; &amp;nbsp; &amp;nbsp;数据存放目录&lt;/font&gt;&lt;/div&gt;" style="rounded=0;whiteSpace=wrap;html=1;align=left;fontSize=8;fillColor=#FFE599;" parent="1" vertex="1">
          <mxGeometry x="72" y="-603" width="347" height="434" as="geometry" />
        </mxCell>
        <mxCell id="g8YqqYHhqT1fTJi5KSwG-14" value="" style="rounded=0;whiteSpace=wrap;html=1;" parent="1" vertex="1">
          <mxGeometry x="1029" y="-319" width="530" height="610" as="geometry" />
        </mxCell>
        <mxCell id="g8YqqYHhqT1fTJi5KSwG-15" value="" style="rounded=0;whiteSpace=wrap;html=1;fillColor=#FFFF00;dashed=1;" parent="1" vertex="1">
          <mxGeometry x="1059" y="-99" width="100" height="300" as="geometry" />
        </mxCell>
        <mxCell id="g8YqqYHhqT1fTJi5KSwG-16" value="&lt;font style=&quot;font-size: 10px;&quot;&gt;注册中心&lt;/font&gt;" style="rounded=0;whiteSpace=wrap;html=1;strokeColor=#FFFF00;fillColor=#FFFF00;" parent="1" vertex="1">
          <mxGeometry x="1080.6666666666667" y="-76.3896894409938" width="66.66666666666667" height="26.161490683229808" as="geometry" />
        </mxCell>
        <mxCell id="g8YqqYHhqT1fTJi5KSwG-17" value="&lt;font style=&quot;font-size: 10px;&quot;&gt;nacos0&lt;/font&gt;" style="rounded=0;whiteSpace=wrap;html=1;" parent="1" vertex="1">
          <mxGeometry x="1079" y="-28.817360248447216" width="70" height="23.981366459627328" as="geometry" />
        </mxCell>
        <mxCell id="g8YqqYHhqT1fTJi5KSwG-18" value="&lt;font style=&quot;font-size: 10px;&quot;&gt;nacos0&lt;/font&gt;" style="rounded=0;whiteSpace=wrap;html=1;" parent="1" vertex="1">
          <mxGeometry x="1079" y="28.17539337474119" width="70" height="23.981366459627328" as="geometry" />
        </mxCell>
        <mxCell id="g8YqqYHhqT1fTJi5KSwG-19" value="&lt;font style=&quot;font-size: 10px;&quot;&gt;nacos0&lt;/font&gt;" style="rounded=0;whiteSpace=wrap;html=1;" parent="1" vertex="1">
          <mxGeometry x="1079" y="79.98698757763975" width="70" height="23.981366459627328" as="geometry" />
        </mxCell>
        <mxCell id="g8YqqYHhqT1fTJi5KSwG-20" value="" style="group;fillColor=#FFFF00;" parent="1" vertex="1" connectable="0">
          <mxGeometry x="1169" y="-99" width="130" height="45.21739130434782" as="geometry" />
        </mxCell>
        <mxCell id="g8YqqYHhqT1fTJi5KSwG-21" value="&lt;font style=&quot;font-size: 10px;&quot;&gt;&amp;nbsp; &amp;nbsp; 访问层&lt;/font&gt;" style="rounded=0;whiteSpace=wrap;html=1;align=left;fillColor=#FFFF00;dashed=1;" parent="g8YqqYHhqT1fTJi5KSwG-20" vertex="1">
          <mxGeometry width="130" height="45.21739130434782" as="geometry" />
        </mxCell>
        <mxCell id="g8YqqYHhqT1fTJi5KSwG-22" value="&lt;font style=&quot;font-size: 10px;&quot;&gt;tomcat-8082&lt;/font&gt;" style="rounded=0;whiteSpace=wrap;html=1;" parent="g8YqqYHhqT1fTJi5KSwG-20" vertex="1">
          <mxGeometry x="50" y="10.4" width="70" height="25.77" as="geometry" />
        </mxCell>
        <mxCell id="g8YqqYHhqT1fTJi5KSwG-26" value="" style="rounded=0;whiteSpace=wrap;html=1;fillColor=#FFFF00;dashed=1;" parent="1" vertex="1">
          <mxGeometry x="1169" y="-46.43000000000001" width="130" height="187.43" as="geometry" />
        </mxCell>
        <mxCell id="g8YqqYHhqT1fTJi5KSwG-27" value="&lt;font style=&quot;font-size: 10px;&quot;&gt;数据处理层&lt;/font&gt;" style="rounded=0;whiteSpace=wrap;html=1;strokeColor=#FFFF00;fillColor=#FFFF00;" parent="1" vertex="1">
          <mxGeometry x="1178.9966666666667" y="-39.00273291925467" width="66.66666666666667" height="26.161490683229808" as="geometry" />
        </mxCell>
        <mxCell id="g8YqqYHhqT1fTJi5KSwG-28" value="&lt;font style=&quot;font-size: 10px;&quot;&gt;trade-data&lt;/font&gt;" style="rounded=0;whiteSpace=wrap;html=1;" parent="1" vertex="1">
          <mxGeometry x="1204" y="-4.840000000000032" width="60" height="25.84" as="geometry" />
        </mxCell>
        <mxCell id="g8YqqYHhqT1fTJi5KSwG-29" value="" style="rounded=0;whiteSpace=wrap;html=1;fillColor=#FFFF00;fontStyle=1;dashed=1;" parent="1" vertex="1">
          <mxGeometry x="1308" y="-46.43000000000001" width="130" height="187.43" as="geometry" />
        </mxCell>
        <mxCell id="g8YqqYHhqT1fTJi5KSwG-30" value="&lt;font style=&quot;font-size: 10px;&quot;&gt;trade-data&lt;/font&gt;" style="rounded=0;whiteSpace=wrap;html=1;" parent="1" vertex="1">
          <mxGeometry x="1343" y="-4.842173913043439" width="60" height="25.773913043478256" as="geometry" />
        </mxCell>
        <mxCell id="g8YqqYHhqT1fTJi5KSwG-31" value="&lt;font style=&quot;font-size: 10px;&quot;&gt;数据处理层&lt;/font&gt;" style="rounded=0;whiteSpace=wrap;html=1;strokeColor=#FFFF00;fillColor=#FFFF00;" parent="1" vertex="1">
          <mxGeometry x="1318.9966666666667" y="-39.00273291925467" width="66.66666666666667" height="26.161490683229808" as="geometry" />
        </mxCell>
        <mxCell id="g8YqqYHhqT1fTJi5KSwG-32" value="&lt;font style=&quot;font-size: 10px;&quot;&gt;trade-data&lt;/font&gt;" style="rounded=0;whiteSpace=wrap;html=1;" parent="1" vertex="1">
          <mxGeometry x="1343" y="28.177826086956543" width="60" height="25.773913043478256" as="geometry" />
        </mxCell>
        <mxCell id="g8YqqYHhqT1fTJi5KSwG-33" value="&lt;font style=&quot;font-size: 10px;&quot;&gt;trade-data&lt;/font&gt;" style="rounded=0;whiteSpace=wrap;html=1;" parent="1" vertex="1">
          <mxGeometry x="1343" y="62.57782608695652" width="60" height="25.773913043478256" as="geometry" />
        </mxCell>
        <mxCell id="g8YqqYHhqT1fTJi5KSwG-34" value="&lt;font style=&quot;font-size: 10px;&quot;&gt;trade-data&lt;/font&gt;" style="rounded=0;whiteSpace=wrap;html=1;" parent="1" vertex="1">
          <mxGeometry x="1343" y="95.59782608695656" width="60" height="25.773913043478256" as="geometry" />
        </mxCell>
        <mxCell id="g8YqqYHhqT1fTJi5KSwG-35" value="&lt;font style=&quot;font-size: 10px;&quot;&gt;&amp;nbsp; &amp;nbsp; 访问层&lt;/font&gt;" style="rounded=0;whiteSpace=wrap;html=1;align=left;fillColor=#FFFF00;dashed=1;" parent="1" vertex="1">
          <mxGeometry x="1169" y="151" width="270" height="50" as="geometry" />
        </mxCell>
        <mxCell id="g8YqqYHhqT1fTJi5KSwG-36" value="&lt;font&gt;数据处理层&lt;/font&gt;" style="rounded=0;whiteSpace=wrap;html=1;strokeColor=#FFFF00;fillColor=#FFFF00;fontSize=10;" parent="1" vertex="1">
          <mxGeometry x="1176.96" y="162.91999999999996" width="56.66" height="26.16" as="geometry" />
        </mxCell>
        <mxCell id="g8YqqYHhqT1fTJi5KSwG-37" value="消息队列" style="rounded=0;whiteSpace=wrap;html=1;strokeColor=#FFFF00;fillColor=#FFFF00;fontSize=10;" parent="1" vertex="1">
          <mxGeometry x="1381.34" y="164.09000000000003" width="56.66" height="26.16" as="geometry" />
        </mxCell>
        <mxCell id="g8YqqYHhqT1fTJi5KSwG-38" value="&lt;font style=&quot;font-size: 10px;&quot;&gt;artemis-02&lt;/font&gt;" style="rounded=0;whiteSpace=wrap;html=1;" parent="1" vertex="1">
          <mxGeometry x="1319" y="161.75" width="65.38" height="28.5" as="geometry" />
        </mxCell>
        <mxCell id="g8YqqYHhqT1fTJi5KSwG-39" value="&lt;font style=&quot;font-size: 10px;&quot;&gt;xxl-job&lt;/font&gt;" style="rounded=0;whiteSpace=wrap;html=1;" parent="1" vertex="1">
          <mxGeometry x="1233.62" y="161.75" width="65.38" height="28.5" as="geometry" />
        </mxCell>
        <mxCell id="g8YqqYHhqT1fTJi5KSwG-45" value="" style="rounded=0;whiteSpace=wrap;html=1;fillColor=#FFFF00;dashed=1;" parent="1" vertex="1">
          <mxGeometry x="1449" y="-99" width="90" height="300" as="geometry" />
        </mxCell>
        <mxCell id="g8YqqYHhqT1fTJi5KSwG-46" value="&lt;font style=&quot;font-size: 10px;&quot;&gt;接口调用&lt;/font&gt;" style="rounded=0;whiteSpace=wrap;html=1;strokeColor=#FFFF00;fillColor=#FFFF00;" parent="1" vertex="1">
          <mxGeometry x="1462.3366666666666" y="2.0172670807453414" width="66.66666666666667" height="26.161490683229808" as="geometry" />
        </mxCell>
        <mxCell id="g8YqqYHhqT1fTJi5KSwG-47" value="&lt;font style=&quot;font-size: 10px;&quot;&gt;API_server&lt;/font&gt;" style="rounded=0;whiteSpace=wrap;html=1;" parent="1" vertex="1">
          <mxGeometry x="1465.67" y="38.079999999999984" width="60" height="25.84" as="geometry" />
        </mxCell>
        <mxCell id="g8YqqYHhqT1fTJi5KSwG-48" value="&lt;font style=&quot;font-size: 10px;&quot;&gt;&amp;nbsp; &amp;nbsp; 网关层&lt;/font&gt;" style="rounded=0;whiteSpace=wrap;html=1;align=left;fillColor=#FFFF00;dashed=1;" parent="1" vertex="1">
          <mxGeometry x="1169" y="-169" width="130" height="45.21739130434782" as="geometry" />
        </mxCell>
        <mxCell id="g8YqqYHhqT1fTJi5KSwG-49" value="&lt;font style=&quot;font-size: 10px;&quot;&gt;trade-gateway&lt;/font&gt;" style="rounded=0;whiteSpace=wrap;html=1;" parent="1" vertex="1">
          <mxGeometry x="1219" y="-158.6" width="70" height="25.77" as="geometry" />
        </mxCell>
        <mxCell id="g8YqqYHhqT1fTJi5KSwG-50" value="&lt;font style=&quot;font-size: 10px;&quot;&gt;&amp;nbsp; &amp;nbsp; 入口层&lt;/font&gt;" style="rounded=0;whiteSpace=wrap;html=1;align=left;fillColor=#FFFF00;dashed=1;" parent="1" vertex="1">
          <mxGeometry x="1169" y="-239" width="130" height="45.21739130434782" as="geometry" />
        </mxCell>
        <mxCell id="g8YqqYHhqT1fTJi5KSwG-51" value="&lt;font style=&quot;font-size: 10px;&quot;&gt;nginx&lt;/font&gt;" style="rounded=0;whiteSpace=wrap;html=1;" parent="1" vertex="1">
          <mxGeometry x="1219" y="-228.6" width="70" height="25.77" as="geometry" />
        </mxCell>
        <mxCell id="g8YqqYHhqT1fTJi5KSwG-52" value="&lt;font style=&quot;font-size: 10px;&quot;&gt;&amp;nbsp; &amp;nbsp; 管理端前端&lt;/font&gt;" style="rounded=0;whiteSpace=wrap;html=1;align=left;fillColor=#FFFF00;dashed=1;" parent="1" vertex="1">
          <mxGeometry x="1335.67" y="-239" width="130" height="45.21739130434782" as="geometry" />
        </mxCell>
        <mxCell id="g8YqqYHhqT1fTJi5KSwG-53" value="&lt;font style=&quot;font-size: 10px;&quot;&gt;ROOT&lt;/font&gt;" style="rounded=0;whiteSpace=wrap;html=1;" parent="1" vertex="1">
          <mxGeometry x="1403" y="-228.6" width="50" height="25.77" as="geometry" />
        </mxCell>
        <mxCell id="g8YqqYHhqT1fTJi5KSwG-54" value="" style="endArrow=classic;html=1;rounded=0;exitX=0.5;exitY=1;exitDx=0;exitDy=0;entryX=0.5;entryY=0;entryDx=0;entryDy=0;" parent="1" source="g8YqqYHhqT1fTJi5KSwG-50" target="g8YqqYHhqT1fTJi5KSwG-48" edge="1">
          <mxGeometry width="50" height="50" relative="1" as="geometry">
            <mxPoint x="1379" y="-159" as="sourcePoint" />
            <mxPoint x="1379" y="-179" as="targetPoint" />
          </mxGeometry>
        </mxCell>
        <mxCell id="g8YqqYHhqT1fTJi5KSwG-55" value="" style="endArrow=classic;html=1;rounded=0;entryX=0.5;entryY=0;entryDx=0;entryDy=0;exitX=0.5;exitY=1;exitDx=0;exitDy=0;" parent="1" source="g8YqqYHhqT1fTJi5KSwG-48" target="g8YqqYHhqT1fTJi5KSwG-21" edge="1">
          <mxGeometry width="50" height="50" relative="1" as="geometry">
            <mxPoint x="969" y="-139" as="sourcePoint" />
            <mxPoint x="1019" y="-189" as="targetPoint" />
          </mxGeometry>
        </mxCell>
        <mxCell id="g8YqqYHhqT1fTJi5KSwG-56" value="" style="endArrow=classic;html=1;rounded=0;exitX=1;exitY=0.5;exitDx=0;exitDy=0;entryX=0;entryY=0.5;entryDx=0;entryDy=0;" parent="1" source="g8YqqYHhqT1fTJi5KSwG-50" target="g8YqqYHhqT1fTJi5KSwG-52" edge="1">
          <mxGeometry width="50" height="50" relative="1" as="geometry">
            <mxPoint x="1089" y="-179" as="sourcePoint" />
            <mxPoint x="1139" y="-229" as="targetPoint" />
          </mxGeometry>
        </mxCell>
        <mxCell id="g8YqqYHhqT1fTJi5KSwG-57" value="&lt;span style=&quot;font-size: 10px;&quot;&gt;上海机房-（备）&lt;/span&gt;" style="rounded=0;whiteSpace=wrap;html=1;" parent="1" vertex="1">
          <mxGeometry x="1049" y="-279" width="80" height="25.77" as="geometry" />
        </mxCell>
        <mxCell id="g8YqqYHhqT1fTJi5KSwG-23" value="" style="group;fillColor=#FFFF00;dashed=1;" parent="1" vertex="1" connectable="0">
          <mxGeometry x="1308" y="-99" width="130" height="45.21739130434782" as="geometry" />
        </mxCell>
        <mxCell id="g8YqqYHhqT1fTJi5KSwG-24" value="&lt;font style=&quot;font-size: 10px;&quot;&gt;&amp;nbsp; &amp;nbsp; 访问层&lt;/font&gt;" style="rounded=0;whiteSpace=wrap;html=1;align=left;fillColor=#FFFF00;dashed=1;" parent="g8YqqYHhqT1fTJi5KSwG-23" vertex="1">
          <mxGeometry width="130" height="45.21739130434782" as="geometry" />
        </mxCell>
        <mxCell id="g8YqqYHhqT1fTJi5KSwG-25" value="&lt;font style=&quot;font-size: 10px;&quot;&gt;tomcat-8083&lt;/font&gt;" style="rounded=0;whiteSpace=wrap;html=1;" parent="g8YqqYHhqT1fTJi5KSwG-23" vertex="1">
          <mxGeometry x="50" y="10.4" width="70" height="25.77" as="geometry" />
        </mxCell>
        <mxCell id="g8YqqYHhqT1fTJi5KSwG-64" value="" style="group;dashed=1;" parent="1" vertex="1" connectable="0">
          <mxGeometry x="1059" y="201" width="380" height="69.9" as="geometry" />
        </mxCell>
        <mxCell id="g8YqqYHhqT1fTJi5KSwG-65" value="" style="rounded=0;whiteSpace=wrap;html=1;align=left;fillColor=#FFFF00;dashed=1;" parent="g8YqqYHhqT1fTJi5KSwG-64" vertex="1">
          <mxGeometry y="10.4" width="380" height="45.22" as="geometry" />
        </mxCell>
        <mxCell id="g8YqqYHhqT1fTJi5KSwG-66" value="&lt;font style=&quot;font-size: 10px;&quot;&gt;PostgreSQL&lt;/font&gt;" style="points=[];aspect=fixed;html=1;align=center;shadow=0;dashed=0;fillColor=#FF6A00;strokeColor=none;shape=mxgraph.alibaba_cloud.acr_cloud_container_registry;" parent="g8YqqYHhqT1fTJi5KSwG-64" vertex="1">
          <mxGeometry x="289.99999999999994" y="15.41" width="30.32" height="35.19" as="geometry" />
        </mxCell>
        <mxCell id="g8YqqYHhqT1fTJi5KSwG-67" value="Redis" style="points=[];aspect=fixed;html=1;align=center;shadow=0;dashed=0;fillColor=#FF6A00;strokeColor=none;shape=mxgraph.alibaba_cloud.adb_analyticdb_for_mysql;" parent="g8YqqYHhqT1fTJi5KSwG-64" vertex="1">
          <mxGeometry x="80" y="17.45" width="31.17" height="35" as="geometry" />
        </mxCell>
        <mxCell id="g8YqqYHhqT1fTJi5KSwG-68" value="数据库备" style="rounded=0;whiteSpace=wrap;html=1;strokeColor=#FFFF00;fillColor=#FFFF00;fontSize=10;" parent="g8YqqYHhqT1fTJi5KSwG-64" vertex="1">
          <mxGeometry x="10" y="19.920000000000016" width="56.66" height="26.16" as="geometry" />
        </mxCell>
        <mxCell id="gOorpfGjvrE-QdQqzpZJ-4" value="" style="endArrow=classic;html=1;rounded=0;edgeStyle=orthogonalEdgeStyle;dashed=1;strokeColor=#FF0080;exitX=0.517;exitY=1.016;exitDx=0;exitDy=0;exitPerimeter=0;" parent="g8YqqYHhqT1fTJi5KSwG-64" source="f1X-rvi33LOtooYSlSEJ-56" edge="1">
          <mxGeometry relative="1" as="geometry">
            <mxPoint x="-129.98383" y="32.55999999999989" as="sourcePoint" />
            <mxPoint x="95.40000000000009" y="52.44857142857148" as="targetPoint" />
            <Array as="points">
              <mxPoint x="-255" y="70" />
              <mxPoint x="95" y="70" />
            </Array>
          </mxGeometry>
        </mxCell>
        <mxCell id="g8YqqYHhqT1fTJi5KSwG-69" value="" style="points=[];aspect=fixed;html=1;align=center;shadow=0;dashed=0;fillColor=#FF6A00;strokeColor=none;shape=mxgraph.alibaba_cloud.baas_blockchain_as_a_service;" parent="1" vertex="1">
          <mxGeometry x="955.6699999999998" y="371" width="91.14" height="100" as="geometry" />
        </mxCell>
        <mxCell id="g8YqqYHhqT1fTJi5KSwG-70" value="" style="endArrow=classic;html=1;rounded=0;entryX=0.5;entryY=1;entryDx=0;entryDy=0;exitX=0.008;exitY=0.559;exitDx=0;exitDy=0;exitPerimeter=0;edgeStyle=orthogonalEdgeStyle;" parent="1" source="g8YqqYHhqT1fTJi5KSwG-69" target="g8YqqYHhqT1fTJi5KSwG-12" edge="1">
          <mxGeometry width="50" height="50" relative="1" as="geometry">
            <mxPoint x="724" y="501" as="sourcePoint" />
            <mxPoint x="629" y="411" as="targetPoint" />
          </mxGeometry>
        </mxCell>
        <mxCell id="g8YqqYHhqT1fTJi5KSwG-71" value="" style="endArrow=classic;html=1;rounded=0;entryX=0.5;entryY=1;entryDx=0;entryDy=0;exitX=1;exitY=0.542;exitDx=0;exitDy=0;exitPerimeter=0;edgeStyle=orthogonalEdgeStyle;" parent="1" source="g8YqqYHhqT1fTJi5KSwG-69" target="g8YqqYHhqT1fTJi5KSwG-14" edge="1">
          <mxGeometry width="50" height="50" relative="1" as="geometry">
            <mxPoint x="1269" y="401" as="sourcePoint" />
            <mxPoint x="1319" y="351" as="targetPoint" />
          </mxGeometry>
        </mxCell>
        <mxCell id="gOorpfGjvrE-QdQqzpZJ-1" value="" style="endArrow=classic;html=1;rounded=0;edgeStyle=orthogonalEdgeStyle;dashed=1;strokeColor=#0000FF;entryX=0.802;entryY=0.944;entryDx=0;entryDy=0;entryPerimeter=0;exitX=0.503;exitY=1.019;exitDx=0;exitDy=0;exitPerimeter=0;" parent="1" source="f1X-rvi33LOtooYSlSEJ-54" target="g8YqqYHhqT1fTJi5KSwG-65" edge="1">
          <mxGeometry relative="1" as="geometry">
            <mxPoint x="604" y="254" as="sourcePoint" />
            <mxPoint x="1361.1" y="251.6" as="targetPoint" />
            <Array as="points">
              <mxPoint x="604" y="281" />
              <mxPoint x="1364" y="281" />
            </Array>
          </mxGeometry>
        </mxCell>
        <mxCell id="gOorpfGjvrE-QdQqzpZJ-39" value="" style="endArrow=classic;html=1;rounded=0;exitX=0.5;exitY=0;exitDx=0;exitDy=0;edgeStyle=orthogonalEdgeStyle;entryX=0.506;entryY=1.016;entryDx=0;entryDy=0;entryPerimeter=0;" parent="1" source="gOorpfGjvrE-QdQqzpZJ-15" target="g8YqqYHhqT1fTJi5KSwG-69" edge="1">
          <mxGeometry width="50" height="50" relative="1" as="geometry">
            <mxPoint x="999" y="641" as="sourcePoint" />
            <mxPoint x="1009" y="481" as="targetPoint" />
          </mxGeometry>
        </mxCell>
        <mxCell id="gOorpfGjvrE-QdQqzpZJ-40" value="" style="endArrow=classic;html=1;rounded=0;entryX=0.508;entryY=1.03;entryDx=0;entryDy=0;entryPerimeter=0;exitX=0.5;exitY=0;exitDx=0;exitDy=0;edgeStyle=orthogonalEdgeStyle;" parent="1" source="gOorpfGjvrE-QdQqzpZJ-30" target="g8YqqYHhqT1fTJi5KSwG-69" edge="1">
          <mxGeometry width="50" height="50" relative="1" as="geometry">
            <mxPoint x="989" y="811" as="sourcePoint" />
            <mxPoint x="1039" y="761" as="targetPoint" />
          </mxGeometry>
        </mxCell>
        <mxCell id="gOorpfGjvrE-QdQqzpZJ-47" value="高速通道" style="edgeLabel;html=1;align=center;verticalAlign=middle;resizable=0;points=[];" parent="gOorpfGjvrE-QdQqzpZJ-40" vertex="1" connectable="0">
          <mxGeometry x="0.8959" y="1" relative="1" as="geometry">
            <mxPoint as="offset" />
          </mxGeometry>
        </mxCell>
        <mxCell id="gOorpfGjvrE-QdQqzpZJ-15" value="" style="rounded=0;whiteSpace=wrap;html=1;dashed=1;" parent="1" vertex="1">
          <mxGeometry x="626.69" y="551" width="312.31" height="180" as="geometry" />
        </mxCell>
        <mxCell id="gOorpfGjvrE-QdQqzpZJ-5" value="" style="rounded=0;whiteSpace=wrap;html=1;" parent="1" vertex="1">
          <mxGeometry x="663.3894448979593" y="594.5" width="239.39035102040816" height="102" as="geometry" />
        </mxCell>
        <mxCell id="gOorpfGjvrE-QdQqzpZJ-7" value="" style="points=[];aspect=fixed;html=1;align=center;shadow=0;dashed=0;fillColor=#FF6A00;strokeColor=none;shape=mxgraph.alibaba_cloud.ddh_dedicated_host;" parent="1" vertex="1">
          <mxGeometry x="685.6532653061225" y="617.45" width="39.583836734693875" height="39.583836734693875" as="geometry" />
        </mxCell>
        <mxCell id="gOorpfGjvrE-QdQqzpZJ-8" value="" style="points=[];aspect=fixed;html=1;align=center;shadow=0;dashed=0;fillColor=#FF6A00;strokeColor=none;shape=mxgraph.alibaba_cloud.ccc_cloud_call_center;" parent="1" vertex="1">
          <mxGeometry x="839.3120408163264" y="615.75" width="44.84497959183673" height="43.59232653061225" as="geometry" />
        </mxCell>
        <mxCell id="gOorpfGjvrE-QdQqzpZJ-12" value="&lt;font style=&quot;font-size: 10px;&quot;&gt;artemis-03 61616&lt;/font&gt;" style="rounded=0;whiteSpace=wrap;html=1;strokeColor=#FFFFFF;" parent="1" vertex="1">
          <mxGeometry x="665.777836734694" y="662.4150000000001" width="79.33469387755102" height="24.224999999999998" as="geometry" />
        </mxCell>
        <mxCell id="gOorpfGjvrE-QdQqzpZJ-13" value="&lt;span style=&quot;font-size: 10px;&quot;&gt;交易服务&lt;/span&gt;" style="rounded=0;whiteSpace=wrap;html=1;strokeColor=#FFFFFF;" parent="1" vertex="1">
          <mxGeometry x="745.1114285714286" y="661.595" width="79.33469387755102" height="24.224999999999998" as="geometry" />
        </mxCell>
        <mxCell id="gOorpfGjvrE-QdQqzpZJ-14" value="&lt;span style=&quot;font-size: 10px;&quot;&gt;agent&lt;/span&gt;" style="rounded=0;whiteSpace=wrap;html=1;strokeColor=#FFFFFF;" parent="1" vertex="1">
          <mxGeometry x="839.3120408163265" y="662.4150000000001" width="54.28163265306122" height="24.224999999999998" as="geometry" />
        </mxCell>
        <mxCell id="gOorpfGjvrE-QdQqzpZJ-27" value="&lt;span style=&quot;font-size: 10px;&quot;&gt;上海机房-交易机主&lt;/span&gt;" style="rounded=0;whiteSpace=wrap;html=1;strokeColor=#FFFFFF;" parent="1" vertex="1">
          <mxGeometry x="643.11" y="560" width="85.89" height="24.23" as="geometry" />
        </mxCell>
        <mxCell id="gOorpfGjvrE-QdQqzpZJ-30" value="" style="rounded=0;whiteSpace=wrap;html=1;dashed=1;" parent="1" vertex="1">
          <mxGeometry x="1129" y="551" width="250" height="180" as="geometry" />
        </mxCell>
        <mxCell id="gOorpfGjvrE-QdQqzpZJ-31" value="" style="rounded=0;whiteSpace=wrap;html=1;" parent="1" vertex="1">
          <mxGeometry x="1179" y="594.5" width="156.09" height="96.5" as="geometry" />
        </mxCell>
        <mxCell id="gOorpfGjvrE-QdQqzpZJ-33" value="" style="points=[];aspect=fixed;html=1;align=center;shadow=0;dashed=0;fillColor=#FF6A00;strokeColor=none;shape=mxgraph.alibaba_cloud.ccc_cloud_call_center;" parent="1" vertex="1">
          <mxGeometry x="1271.6220408163263" y="615.75" width="44.84497959183673" height="43.59232653061225" as="geometry" />
        </mxCell>
        <mxCell id="gOorpfGjvrE-QdQqzpZJ-36" value="&lt;span style=&quot;font-size: 10px;&quot;&gt;交易服务&lt;/span&gt;" style="rounded=0;whiteSpace=wrap;html=1;strokeColor=#FFFFFF;" parent="1" vertex="1">
          <mxGeometry x="1184.7714285714285" y="662.4150000000001" width="79.33469387755102" height="24.224999999999998" as="geometry" />
        </mxCell>
        <mxCell id="gOorpfGjvrE-QdQqzpZJ-37" value="&lt;span style=&quot;font-size: 10px;&quot;&gt;agent&lt;/span&gt;" style="rounded=0;whiteSpace=wrap;html=1;strokeColor=#FFFFFF;" parent="1" vertex="1">
          <mxGeometry x="1271.6220408163265" y="662.4150000000001" width="54.28163265306122" height="24.224999999999998" as="geometry" />
        </mxCell>
        <mxCell id="gOorpfGjvrE-QdQqzpZJ-38" value="&lt;span style=&quot;font-size: 10px;&quot;&gt;上海机房-交易机备&lt;/span&gt;" style="rounded=0;whiteSpace=wrap;html=1;strokeColor=#FFFFFF;" parent="1" vertex="1">
          <mxGeometry x="1184.77" y="560" width="93.58" height="24.23" as="geometry" />
        </mxCell>
        <mxCell id="gOorpfGjvrE-QdQqzpZJ-42" value="" style="points=[];aspect=fixed;html=1;align=center;shadow=0;dashed=0;fillColor=#FF6A00;strokeColor=none;shape=mxgraph.alibaba_cloud.analyticdb_for_postgresql;" parent="1" vertex="1">
          <mxGeometry x="1199.3899999999999" y="609.8399999999999" width="50.099999999999994" height="49.5" as="geometry" />
        </mxCell>
        <mxCell id="gOorpfGjvrE-QdQqzpZJ-44" value="" style="points=[];aspect=fixed;html=1;align=center;shadow=0;dashed=0;fillColor=#FF6A00;strokeColor=none;shape=mxgraph.alibaba_cloud.analyticdb_for_postgresql;" parent="1" vertex="1">
          <mxGeometry x="767.28" y="619.8399999999999" width="50.099999999999994" height="49.5" as="geometry" />
        </mxCell>
        <mxCell id="gOorpfGjvrE-QdQqzpZJ-48" value="" style="endArrow=classic;html=1;rounded=0;edgeStyle=orthogonalEdgeStyle;startFill=0;endFill=1;entryX=0.497;entryY=0.015;entryDx=0;entryDy=0;entryPerimeter=0;exitX=0.488;exitY=0.999;exitDx=0;exitDy=0;exitPerimeter=0;" parent="1" source="gOorpfGjvrE-QdQqzpZJ-15" target="gOorpfGjvrE-QdQqzpZJ-10" edge="1">
          <mxGeometry width="50" height="50" relative="1" as="geometry">
            <mxPoint x="781.255" y="711" as="sourcePoint" />
            <mxPoint x="675.66" y="790.1500000000001" as="targetPoint" />
            <Array as="points">
              <mxPoint x="779" y="771" />
              <mxPoint x="679" y="771" />
            </Array>
          </mxGeometry>
        </mxCell>
        <mxCell id="gOorpfGjvrE-QdQqzpZJ-49" value="" style="endArrow=classic;html=1;rounded=0;entryX=0.491;entryY=-0.028;entryDx=0;entryDy=0;entryPerimeter=0;edgeStyle=orthogonalEdgeStyle;" parent="1" target="gOorpfGjvrE-QdQqzpZJ-46" edge="1">
          <mxGeometry width="50" height="50" relative="1" as="geometry">
            <mxPoint x="779" y="731" as="sourcePoint" />
            <mxPoint x="989" y="811" as="targetPoint" />
            <Array as="points">
              <mxPoint x="779" y="771" />
              <mxPoint x="881" y="771" />
            </Array>
          </mxGeometry>
        </mxCell>
        <mxCell id="gOorpfGjvrE-QdQqzpZJ-54" value="" style="group" parent="1" vertex="1" connectable="0">
          <mxGeometry x="654" y="851" width="248.77999999999997" height="50" as="geometry" />
        </mxCell>
        <mxCell id="gOorpfGjvrE-QdQqzpZJ-10" value="" style="points=[];aspect=fixed;html=1;align=center;shadow=0;dashed=0;fillColor=#FF6A00;strokeColor=none;shape=mxgraph.alibaba_cloud.openanalytics;" parent="gOorpfGjvrE-QdQqzpZJ-54" vertex="1">
          <mxGeometry width="50" height="50" as="geometry" />
        </mxCell>
        <mxCell id="gOorpfGjvrE-QdQqzpZJ-46" value="" style="points=[];aspect=fixed;html=1;align=center;shadow=0;dashed=0;fillColor=#FF6A00;strokeColor=none;shape=mxgraph.alibaba_cloud.cloudbox;" parent="gOorpfGjvrE-QdQqzpZJ-54" vertex="1">
          <mxGeometry x="205.61" width="43.17" height="50" as="geometry" />
        </mxCell>
        <mxCell id="gOorpfGjvrE-QdQqzpZJ-55" value="" style="group" parent="1" vertex="1" connectable="0">
          <mxGeometry x="1129" y="854" width="248.77999999999997" height="50" as="geometry" />
        </mxCell>
        <mxCell id="gOorpfGjvrE-QdQqzpZJ-56" value="" style="points=[];aspect=fixed;html=1;align=center;shadow=0;dashed=0;fillColor=#FF6A00;strokeColor=none;shape=mxgraph.alibaba_cloud.openanalytics;" parent="gOorpfGjvrE-QdQqzpZJ-55" vertex="1">
          <mxGeometry width="50" height="50" as="geometry" />
        </mxCell>
        <mxCell id="gOorpfGjvrE-QdQqzpZJ-57" value="" style="points=[];aspect=fixed;html=1;align=center;shadow=0;dashed=0;fillColor=#FF6A00;strokeColor=none;shape=mxgraph.alibaba_cloud.cloudbox;" parent="gOorpfGjvrE-QdQqzpZJ-55" vertex="1">
          <mxGeometry x="205.61" width="43.17" height="50" as="geometry" />
        </mxCell>
        <mxCell id="gOorpfGjvrE-QdQqzpZJ-58" value="&lt;font style=&quot;font-size: 10px;&quot;&gt;静态行情文件/mnt/exchange&lt;/font&gt;" style="rounded=0;whiteSpace=wrap;html=1;align=center;" parent="1" vertex="1">
          <mxGeometry x="883" y="792" width="90" height="28.5" as="geometry" />
        </mxCell>
        <mxCell id="kRCVjmy2DTrYSgTaV2by-1" value="" style="endArrow=classic;html=1;rounded=0;entryX=0.491;entryY=0.042;entryDx=0;entryDy=0;entryPerimeter=0;exitX=0.5;exitY=1;exitDx=0;exitDy=0;edgeStyle=orthogonalEdgeStyle;" parent="1" source="gOorpfGjvrE-QdQqzpZJ-30" target="gOorpfGjvrE-QdQqzpZJ-56" edge="1">
          <mxGeometry width="50" height="50" relative="1" as="geometry">
            <mxPoint x="1138" y="974" as="sourcePoint" />
            <mxPoint x="1188" y="924" as="targetPoint" />
          </mxGeometry>
        </mxCell>
        <mxCell id="kRCVjmy2DTrYSgTaV2by-2" value="" style="endArrow=classic;html=1;rounded=0;exitX=0.5;exitY=1;exitDx=0;exitDy=0;entryX=0.513;entryY=0.017;entryDx=0;entryDy=0;entryPerimeter=0;edgeStyle=orthogonalEdgeStyle;" parent="1" source="gOorpfGjvrE-QdQqzpZJ-30" target="gOorpfGjvrE-QdQqzpZJ-57" edge="1">
          <mxGeometry width="50" height="50" relative="1" as="geometry">
            <mxPoint x="1178" y="1027" as="sourcePoint" />
            <mxPoint x="1228" y="977" as="targetPoint" />
          </mxGeometry>
        </mxCell>
        <mxCell id="kRCVjmy2DTrYSgTaV2by-3" value="&lt;font style=&quot;font-size: 10px;&quot;&gt;证券柜台&lt;/font&gt;" style="rounded=0;whiteSpace=wrap;html=1;" parent="1" vertex="1">
          <mxGeometry x="649" y="912" width="65.38" height="28.5" as="geometry" />
        </mxCell>
        <mxCell id="kRCVjmy2DTrYSgTaV2by-4" value="&lt;font style=&quot;font-size: 10px;&quot;&gt;交易所静态文件&lt;/font&gt;" style="rounded=0;whiteSpace=wrap;html=1;" parent="1" vertex="1">
          <mxGeometry x="839.31" y="912" width="90" height="28.5" as="geometry" />
        </mxCell>
        <mxCell id="kRCVjmy2DTrYSgTaV2by-7" value="&lt;font style=&quot;font-size: 10px;&quot;&gt;证券柜台&lt;/font&gt;" style="rounded=0;whiteSpace=wrap;html=1;" parent="1" vertex="1">
          <mxGeometry x="1123" y="912" width="65.38" height="28.5" as="geometry" />
        </mxCell>
        <mxCell id="kRCVjmy2DTrYSgTaV2by-8" value="&lt;font style=&quot;font-size: 10px;&quot;&gt;交易所静态文件&lt;/font&gt;" style="rounded=0;whiteSpace=wrap;html=1;" parent="1" vertex="1">
          <mxGeometry x="1313" y="912" width="90" height="28.5" as="geometry" />
        </mxCell>
        <mxCell id="kRCVjmy2DTrYSgTaV2by-11" value="" style="sketch=0;verticalLabelPosition=bottom;sketch=0;aspect=fixed;html=1;verticalAlign=top;strokeColor=none;fillColor=#000000;align=center;outlineConnect=0;pointerEvents=1;shape=mxgraph.citrix2.external_users;" parent="1" vertex="1">
          <mxGeometry x="794" y="-661" width="67.83" height="70" as="geometry" />
        </mxCell>
        <mxCell id="kRCVjmy2DTrYSgTaV2by-12" value="" style="endArrow=classic;html=1;rounded=0;edgeStyle=orthogonalEdgeStyle;strokeColor=#FF0000;" parent="1" source="kRCVjmy2DTrYSgTaV2by-11" target="g8YqqYHhqT1fTJi5KSwG-12" edge="1">
          <mxGeometry width="50" height="50" relative="1" as="geometry">
            <mxPoint x="942" y="-532" as="sourcePoint" />
            <mxPoint x="933" y="-439" as="targetPoint" />
            <Array as="points">
              <mxPoint x="828" y="-443" />
              <mxPoint x="724" y="-443" />
            </Array>
          </mxGeometry>
        </mxCell>
        <mxCell id="kRCVjmy2DTrYSgTaV2by-13" value="" style="endArrow=classic;html=1;rounded=0;entryX=0.5;entryY=0;entryDx=0;entryDy=0;edgeStyle=orthogonalEdgeStyle;dashed=1;strokeColor=#FF0000;" parent="1" source="kRCVjmy2DTrYSgTaV2by-11" edge="1">
          <mxGeometry width="50" height="50" relative="1" as="geometry">
            <mxPoint x="943" y="-570" as="sourcePoint" />
            <mxPoint x="1295" y="-319" as="targetPoint" />
            <Array as="points">
              <mxPoint x="828" y="-443" />
              <mxPoint x="1295" y="-443" />
            </Array>
          </mxGeometry>
        </mxCell>
        <mxCell id="zx21mkTg1G2-o9SNH6Tr-1" value="admin" style="edgeLabel;html=1;align=center;verticalAlign=middle;resizable=0;points=[];" parent="kRCVjmy2DTrYSgTaV2by-13" vertex="1" connectable="0">
          <mxGeometry x="-0.9612" y="-1" relative="1" as="geometry">
            <mxPoint as="offset" />
          </mxGeometry>
        </mxCell>
        <mxCell id="zx21mkTg1G2-o9SNH6Tr-2" value="http://10.0.0.10:8080" style="edgeLabel;html=1;align=center;verticalAlign=middle;resizable=0;points=[];" parent="kRCVjmy2DTrYSgTaV2by-13" vertex="1" connectable="0">
          <mxGeometry x="-0.8151" relative="1" as="geometry">
            <mxPoint as="offset" />
          </mxGeometry>
        </mxCell>
        <mxCell id="kRCVjmy2DTrYSgTaV2by-15" value="&lt;font style=&quot;font-size: 10px;&quot;&gt;机构中台&lt;/font&gt;" style="rounded=0;whiteSpace=wrap;html=1;align=center;fillColor=#00FF00;" parent="1" vertex="1">
          <mxGeometry x="1049" y="-617" width="130" height="45.21739130434782" as="geometry" />
        </mxCell>
        <mxCell id="kRCVjmy2DTrYSgTaV2by-16" value="" style="endArrow=classic;html=1;rounded=0;entryX=0.5;entryY=0;entryDx=0;entryDy=0;exitX=0;exitY=0.5;exitDx=0;exitDy=0;edgeStyle=orthogonalEdgeStyle;strokeColor=#0000FF;" parent="1" source="kRCVjmy2DTrYSgTaV2by-15" target="f1X-rvi33LOtooYSlSEJ-50" edge="1">
          <mxGeometry width="50" height="50" relative="1" as="geometry">
            <mxPoint x="905" y="-468" as="sourcePoint" />
            <mxPoint x="955" y="-518" as="targetPoint" />
          </mxGeometry>
        </mxCell>
        <mxCell id="kRCVjmy2DTrYSgTaV2by-17" value="" style="endArrow=classic;html=1;rounded=0;exitX=0;exitY=0.5;exitDx=0;exitDy=0;entryX=0.5;entryY=0;entryDx=0;entryDy=0;edgeStyle=orthogonalEdgeStyle;strokeColor=#0000FF;dashed=1;" parent="1" source="kRCVjmy2DTrYSgTaV2by-15" target="g8YqqYHhqT1fTJi5KSwG-45" edge="1">
          <mxGeometry width="50" height="50" relative="1" as="geometry">
            <mxPoint x="1037" y="-579" as="sourcePoint" />
            <mxPoint x="1033" y="-505" as="targetPoint" />
            <Array as="points">
              <mxPoint x="924" y="-594" />
              <mxPoint x="924" y="-370" />
              <mxPoint x="1494" y="-370" />
            </Array>
          </mxGeometry>
        </mxCell>
        <mxCell id="kRCVjmy2DTrYSgTaV2by-18" value="&lt;font style=&quot;font-size: 10px;&quot;&gt;极速订单系统&lt;/font&gt;" style="rounded=0;whiteSpace=wrap;html=1;align=center;fillColor=#00FF00;" parent="1" vertex="1">
          <mxGeometry x="1051" y="-529" width="130" height="45.21739130434782" as="geometry" />
        </mxCell>
        <mxCell id="kRCVjmy2DTrYSgTaV2by-19" value="" style="endArrow=classic;html=1;rounded=0;exitX=0.5;exitY=0;exitDx=0;exitDy=0;entryX=0;entryY=0.5;entryDx=0;entryDy=0;edgeStyle=orthogonalEdgeStyle;strokeColor=#00CC00;" parent="1" source="f1X-rvi33LOtooYSlSEJ-50" target="kRCVjmy2DTrYSgTaV2by-18" edge="1">
          <mxGeometry width="50" height="50" relative="1" as="geometry">
            <mxPoint x="1428" y="-467" as="sourcePoint" />
            <mxPoint x="1478" y="-517" as="targetPoint" />
          </mxGeometry>
        </mxCell>
        <mxCell id="kRCVjmy2DTrYSgTaV2by-20" value="" style="endArrow=classic;html=1;rounded=0;exitX=0.5;exitY=0;exitDx=0;exitDy=0;entryX=0;entryY=0.5;entryDx=0;entryDy=0;edgeStyle=orthogonalEdgeStyle;dashed=1;strokeColor=#00CC00;" parent="1" source="g8YqqYHhqT1fTJi5KSwG-45" target="kRCVjmy2DTrYSgTaV2by-18" edge="1">
          <mxGeometry width="50" height="50" relative="1" as="geometry">
            <mxPoint x="1437" y="-451" as="sourcePoint" />
            <mxPoint x="1487" y="-501" as="targetPoint" />
            <Array as="points">
              <mxPoint x="1494" y="-371" />
              <mxPoint x="926" y="-371" />
              <mxPoint x="926" y="-506" />
            </Array>
          </mxGeometry>
        </mxCell>
      </root>
    </mxGraphModel>
  </diagram>
</mxfile>
